HIERARCHY
ROOT pelvis
{
  OFFSET 0 100 0
  CHANNELS 6 Xposition Yposition Zposition Zrotation Xrotation Yrotation
  JOINT pelvis_right_femur
  {
    OFFSET -10.78128 -3.44521 -0.5502486
    CHANNELS 3 Zrotation Xrotation Yrotation
    JOINT right_femur_tibia
    {
      OFFSET -0.8047443 -44.0398 -0.1307829
      CHANNELS 3 Zrotation Xrotation Yrotation
      JOINT right_tibia_foot
      {
        OFFSET 3.006224 -47.83518 -5
        CHANNELS 3 Zrotation Xrotation Yrotation
        End Site
        {
          OFFSET 0 -5 15
        }
      }
    }
  }
  JOINT pelvis_left_femur
  {
    OFFSET 10.78128 -3.44521 -0.5502486
    CHANNELS 3 Zrotation Xrotation Yrotation
    JOINT left_femur_tibia
    {
      OFFSET 0.8047443 -44.0398 -0.1307829
      CHANNELS 3 Zrotation Xrotation Yrotation
      JOINT left_tibia_foot
      {
        OFFSET -4.370144 -48.10324 -4.275266
        CHANNELS 3 Zrotation Xrotation Yrotation
        End Site
        {
          OFFSET 0 -5 15
        }
      }
    }
  }
  JOINT pelvis_spine1
  {
    OFFSET 0 6.468898 -3.129235
    CHANNELS 3 Zrotation Xrotation Yrotation
    JOINT spine1
    {
      OFFSET 0 23.15396 4.99043
      CHANNELS 3 Zrotation Xrotation Yrotation
      JOINT spine2
      {
        OFFSET 0 20.79997 -5.064912
        CHANNELS 3 Zrotation Xrotation Yrotation
        JOINT neck
        {
          OFFSET 0 14.38658 9.616178
          CHANNELS 3 Zrotation Xrotation Yrotation
          End Site
          {
            OFFSET 0 20 0
          }
        }
      }
      JOINT right_manubrium
      {
        OFFSET -5.722621 16.35077 3.967754
        CHANNELS 3 Zrotation Xrotation Yrotation
        JOINT right_clavicle
        {
          OFFSET -13.16364 1.694482 -4.693211
          CHANNELS 3 Zrotation Xrotation Yrotation
          JOINT right_humerus
          {
            OFFSET -28.5034 -0.3100689 -2.792744
            CHANNELS 3 Zrotation Xrotation Yrotation
            JOINT right_radius
            {
              OFFSET -25.15693 0.02248979 -1.271978
              CHANNELS 3 Zrotation Xrotation Yrotation
              End Site
              {
                OFFSET -15 0 0
              }
            }
          }
        }
      }
      JOINT left_manubrium
      {
        OFFSET 5.722621 16.35077 3.967754
        CHANNELS 3 Zrotation Xrotation Yrotation
        JOINT left_clavicle
        {
          OFFSET 13.16364 1.694482 -4.693211
          CHANNELS 3 Zrotation Xrotation Yrotation
          JOINT left_humerus
          {
            OFFSET 29.39168 -1.063119 -2.237045
            CHANNELS 3 Zrotation Xrotation Yrotation
            JOINT left_radius
            {
              OFFSET 24.59957 -0.9528479 0.9047498
              CHANNELS 3 Zrotation Xrotation Yrotation
              End Site
              {
                OFFSET 15 -0 -0
              }
            }
          }
        }
      }
    }
  }
}
MOTION
Frames: 17
Frame Time: 0.0416666666667
-1158.035 98.27978 2365.382 -9.137416 -4.457809 -77.50424 -2.640021 20.01256 -1.567207 -0 43.74185 -0 -15.33895 8.437659 4.614102 -6.1066 -9.876424 -15.32983 -0 16.8924 -0 -2.363636 -7.701506 21.57172 2.285141 -2.227835 8.570794 1.584964 16.2653 -8.236518 1.307444 21.85034 -1.114695 -1.015173 -15.08888 2.04457 -2.851858 -30.52708 14.75675 93.05962 20.92675 -14.61677 -0 0 22.74871 -19.53446 9.886927 7.229747 -0.9921848 -23.04296 -10.39108 -91.54371 6.870712 36.27733 0 0 -5.871683 9.201031 18.77743 -2.627111
-1163.697 99.71712 2367.632 -9.777986 -4.591441 -76.86459 -2.571881 15.07732 -1.894378 -0 51.2225 -0 -16.46252 13.13542 5.202643 -6.365271 -5.977717 -15.62149 -0 17.39794 -0 -1.722428 -8.809117 21.52711 2.275161 -1.9473 8.562208 1.551208 16.06069 -8.344238 1.176911 22.14655 -0.906373 -0.6967987 -14.85142 1.914646 -2.80023 -29.79984 14.82781 93.61452 21.87432 -15.64125 -0 0 21.49786 -19.10152 8.64534 6.046769 -0.9894151 -23.24641 -10.73391 -90.97122 6.188365 35.48469 0 0 -6.302383 10.15146 18.93834 -4.029831
-1168.876 101.1701 2369.685 -10.2972 -4.278145 -76.11195 -1.916335 8.391488 -2.265905 -0 55.47674 -0 -16.98752 14.89533 5.000025 -5.971996 -1.859151 -15.17299 -0 16.81273 -0 -0.8655365 -9.818988 21.00782 2.236715 -1.601657 8.558372 1.50176 15.78421 -8.451196 1.013847 22.49241 -0.6320446 -0.3035382 -14.58628 1.773955 -2.724718 -28.96385 14.89783 94.25855 23.08064 -16.79682 -0 0 20.11181 -18.61188 7.117776 4.664179 -0.9726324 -23.42671 -11.08873 -90.35102 5.371372 34.61195 0 0 -6.691058 11.25951 19.06413 -5.69178
-1173.589 102.3286 2371.564 -10.61291 -3.799237 -75.42356 -1.107349 1.300176 -2.831133 -0 54.97741 -0 -16.80641 13.85219 4.172374 -5.33601 2.057978 -14.478 -0 15.40778 -0 -0.1771867 -11.09182 20.17199 2.168516 -1.221513 8.547579 1.433882 15.45177 -8.542048 0.8300751 22.86085 -0.2790995 0.1482674 -14.35598 1.658296 -2.638983 -28.05403 14.94805 94.96442 24.4348 -18.02345 -0 0 18.66508 -18.1412 5.436144 3.203048 -0.9137612 -23.57793 -11.41157 -89.74186 4.512314 33.66629 0 0 -7.051777 12.45168 19.12791 -7.491108
-1177.977 102.9667 2373.3 -10.56258 -3.389028 -74.89111 -0.4754332 -5.191554 -3.71654 -0 49.83961 -0 -16.00349 11.09133 3.121093 -4.811272 5.508283 -13.81614 -0 13.62662 -0 0.1362723 -12.82608 19.1284 2.083742 -0.8559111 8.511974 1.351896 15.10125 -8.615058 0.6485709 23.21632 0.1467806 0.6208629 -14.23452 1.610032 -2.575011 -27.10923 14.96416 95.71202 25.75877 -19.27656 -0 0 17.20922 -17.77003 3.808764 1.801224 -0.7818099 -23.7237 -11.66228 -89.18153 3.727418 32.6103 0 0 -7.48522 13.64931 19.13511 -9.294811
-1182.244 102.9999 2374.933 -10.01343 -3.127064 -74.51489 -0.1340358 -10.66304 -4.893115 -0 41.49613 -0 -14.75666 7.920299 2.198403 -4.593365 8.402872 -13.23167 -0 11.92168 -0 0.135904 -14.95035 18.0065 2.009741 -0.5626948 8.433866 1.268318 14.78563 -8.686932 0.4991041 23.52078 0.6167161 1.061529 -14.28251 1.664758 -2.575305 -26.16767 14.94477 96.4918 26.85078 -20.53759 -0 0 15.76051 -17.55958 2.476776 0.5777964 -0.5520899 -23.9164 -11.81544 -88.67411 3.116413 31.37439 0 0 -8.165653 14.79432 19.12905 -11.00279
-1186.582 102.4734 2376.501 -8.980577 -2.97752 -74.2464 -0.007249444 -15.09717 -6.171868 -0 31.84748 -0 -13.28471 5.327953 1.567559 -4.708918 10.76786 -12.65108 -0 10.70412 -0 0.06296049 -17.17501 16.96685 1.975661 -0.3908925 8.301099 1.200631 14.55258 -8.78434 0.4070843 23.74294 1.091339 1.421005 -14.52876 1.840781 -2.67538 -25.26332 14.90146 97.29581 27.54624 -21.80253 -0 0 14.30983 -17.53489 1.638892 -0.3879044 -0.2133398 -24.21499 -11.86291 -88.19876 2.735354 29.8968 0 0 -9.273037 15.85929 19.1675 -12.56353
-1191.136 101.5181 2378.04 -7.635791 -2.866716 -74.03263 0.07629738 -18.61593 -7.306555 -0 22.57281 -0 -11.82564 3.800031 1.223857 -5.064116 12.673 -11.98992 -0 10.35095 -0 0.1630555 -19.12586 16.14134 1.993749 -0.3629394 8.108398 1.165446 14.42099 -8.926093 0.3815193 23.86698 1.543195 1.672756 -14.9683 2.136941 -2.885961 -24.42498 14.84853 98.09973 27.76568 -23.05248 -0 0 12.85194 -17.68079 1.381602 -1.054221 0.2287623 -24.64994 -11.80689 -87.73316 2.601471 28.16996 0 0 -10.89947 16.83087 19.28274 -13.94636
-1196.001 100.3115 2379.576 -6.233324 -2.729046 -73.84015 0.299678 -21.31329 -8.084767 -0 14.8399 -0 -10.59737 3.380636 1.074155 -5.509373 14.17503 -11.20306 -0 11.20082 -0 0.5529559 -20.45593 15.57661 2.04998 -0.4664982 7.857645 1.172479 14.37328 -9.108839 0.4116569 23.89592 1.966498 1.819168 -15.56999 2.535179 -3.186606 -23.68009 14.79189 98.8522 27.5285 -24.22904 -0 0 11.41877 -17.95023 1.655719 -1.406013 0.7491768 -25.19766 -11.65313 -87.27414 2.713842 26.26956 0 0 -12.97958 17.68133 19.45704 -15.10047
-1201.227 99.05203 2381.125 -5.031083 -2.521986 -73.66418 0.8102862 -23.1937 -8.363443 -0 9.30162 -0 -9.755862 3.824102 1.007688 -5.887796 15.27879 -10.29305 -0 13.53289 -0 1.185599 -20.89822 15.22144 2.113708 -0.6603719 7.56083 1.220361 14.37166 -9.306927 0.4755987 23.84856 2.363191 1.881035 -16.28234 3.001682 -3.535627 -23.06 14.72684 99.48713 26.9335 -25.2391 -0 0 10.09425 -18.28097 2.308907 -1.453408 1.301865 -25.78313 -11.41339 -86.84186 3.059426 24.3511 0 0 -15.28556 18.35814 19.6347 -15.94828
-1206.831 97.94167 2382.691 -4.241555 -2.229242 -73.53126 1.692037 -24.17277 -8.076811 -0 6.184858 -0 -9.373265 4.736053 0.9326382 -6.061694 15.91294 -9.301283 -0 17.5351 -0 1.892855 -20.28521 14.95898 2.157873 -0.8917491 7.242844 1.296692 14.38484 -9.485243 0.5536709 23.75195 2.721015 1.879513 -17.03824 3.488925 -3.889001 -22.6005 14.64541 99.95081 26.11882 -25.98633 -0 0 8.998116 -18.61472 3.151988 -1.236266 1.824413 -26.30921 -11.11218 -86.47003 3.602663 22.61262 0 0 -17.49532 18.80185 19.75849 -16.41992
-1212.782 97.16705 2384.27 -4.002781 -1.86244 -73.49746 2.93642 -24.10882 -7.24752 -0 5.352345 -0 -9.436158 5.676417 0.7841589 -5.929548 15.91714 -8.296576 -0 23.25138 -0 2.466994 -18.57004 14.66861 2.172676 -1.115469 6.938797 1.382942 14.404 -9.61409 0.6363469 23.63261 3.006221 1.823582 -17.76465 3.943509 -4.215056 -22.33714 14.54477 100.2188 25.21839 -26.40145 -0 0 8.251102 -18.91129 4.023277 -0.8168022 2.251302 -26.69191 -10.78632 -86.1942 4.281188 21.24355 0 0 -19.29523 18.97234 19.79933 -16.48865
-1218.996 96.8717 2385.849 -4.351618 -1.463326 -73.63835 4.413012 -22.85616 -6.002791 -0 6.317586 -0 -9.856658 6.239269 0.52448 -5.446853 15.04715 -7.362933 -0 30.49346 -0 2.746423 -15.86571 14.29256 2.165434 -1.305277 6.68613 1.461157 14.44092 -9.676837 0.7235166 23.5101 3.174276 1.708913 -18.39533 4.31716 -4.497975 -22.29936 14.43024 100.2923 24.33242 -26.45152 -0 0 7.945574 -19.15341 4.823146 -0.2593064 2.529179 -26.88087 -10.4757 -86.04512 5.01799 20.38753 0 0 -20.45876 18.85983 19.76195 -16.17551
-1225.33 97.11928 2387.406 -5.196445 -1.104623 -74.02557 5.86619 -20.33739 -4.570793 -0 8.266327 -0 -10.49542 6.126716 0.1520854 -4.652304 13.01772 -6.582322 -0 38.72217 -0 2.674551 -12.49304 13.87354 2.152096 -1.454351 6.5163 1.518741 14.51601 -9.669543 0.8192497 23.39441 3.185943 1.524751 -18.87939 4.574557 -4.732647 -22.50643 14.31298 100.1842 23.51831 -26.13288 -0 0 8.132835 -19.34316 5.515574 0.3887333 2.626308 -26.86151 -10.21297 -86.04634 5.740241 20.12976 0 0 -20.87382 18.4779 19.6729 -15.52761
-1231.602 97.85907 2388.911 -6.310192 -0.8831763 -74.68958 6.975882 -16.6213 -3.227435 -0 10.1825 -0 -11.19727 5.21539 -0.2819256 -3.677746 9.608296 -6.008109 -0 46.94773 -0 2.313431 -8.990309 13.53672 2.148449 -1.56946 6.449439 1.550159 14.6466 -9.597015 0.9268275 23.28647 3.018675 1.262719 -19.18273 4.69582 -4.916647 -22.96413 14.206 99.90757 22.79677 -25.46166 -0 0 8.82211 -19.49421 6.111533 1.103812 2.534899 -26.64744 -10.01798 -86.21299 6.392613 20.4996 0 0 -20.53274 17.85058 19.56476 -14.59297
-1237.631 98.91691 2390.332 -7.382327 -0.8899266 -75.5849 7.494663 -11.97239 -2.194524 -0 11.15846 -0 -11.83012 3.589937 -0.6768445 -2.699095 4.825375 -5.631278 -0 53.75656 -0 1.817743 -6.003966 13.42248 2.1646 -1.664057 6.492333 1.556586 14.83964 -9.469298 1.045844 23.17986 2.672094 0.9240752 -19.28622 4.676056 -5.04346 -23.66105 14.12133 99.47096 22.16512 -24.47 -0 0 9.983056 -19.62344 6.648876 1.881496 2.269522 -26.27183 -9.896925 -86.55053 6.940918 21.47605 0 0 -19.50957 17.0049 19.4642 -13.40855
-1243.305 100.0311 2391.647 -8.145361 -1.143164 -76.5899 7.405559 -6.829624 -1.545804 -0 10.81405 -0 -12.30877 1.496674 -0.9320435 -1.811074 -0.9625947 -5.353277 -0 57.57745 -0 1.382549 -4.027293 13.6146 2.202388 -1.752795 6.638799 1.544661 15.08882 -9.299781 1.171265 23.06252 2.169359 0.523761 -19.18504 4.524536 -5.099201 -24.56638 14.06877 98.88009 21.61334 -23.20654 -0 0 11.55064 -19.74317 7.174317 2.724152 1.863845 -25.77964 -9.843204 -87.0533 7.36853 22.99251 0 0 -17.93558 15.97148 19.38446 -12.00482
